<svg width="51" height="43" viewBox="0 0 51 43" fill="none" xmlns="http://www.w3.org/2000/svg">
<path d="M49.1788 3.86095C49.32 4.10558 49.4576 4.3526 49.5913 4.60194C49.3484 4.44301 49.1861 4.17116 49.1788 3.86095Z" fill="white" fill-opacity="0.7"/>
<path d="M44.1922 -2.42651C44.6166 -2.02826 45.0283 -1.61661 45.4265 -1.19222C45.2725 -0.907608 44.9713 -0.714286 44.625 -0.714286C44.122 -0.714286 43.7143 -1.12203 43.7143 -1.625C43.7143 -1.97133 43.9076 -2.27251 44.1922 -2.42651Z" fill="white" fill-opacity="0.7"/>
<path d="M38.3981 -6.59134C38.6474 -6.45757 38.8944 -6.32004 39.1391 -6.17883C38.8288 -6.18607 38.557 -6.34842 38.3981 -6.59134Z" fill="white" fill-opacity="0.7"/>
<path d="M11.8609 -6.17883C12.1056 -6.32004 12.3526 -6.45757 12.6019 -6.59134C12.443 -6.34842 12.1712 -6.18607 11.8609 -6.17883Z" fill="white" fill-opacity="0.7"/>
<path d="M5.57349 -1.19222C5.97174 -1.61661 6.38339 -2.02826 6.80778 -2.42651C7.09239 -2.27251 7.28571 -1.97133 7.28571 -1.625C7.28571 -1.12203 6.87797 -0.714286 6.375 -0.714286C6.02867 -0.714286 5.72749 -0.907608 5.57349 -1.19222Z" fill="white" fill-opacity="0.7"/>
<path d="M1.40866 4.60194C1.54243 4.3526 1.67996 4.10558 1.82117 3.86095C1.81393 4.17116 1.65158 4.44301 1.40866 4.60194Z" fill="white" fill-opacity="0.7"/>
<path d="M49.5913 30.3981C49.4576 30.6474 49.32 30.8944 49.1788 31.1391C49.1861 30.8288 49.3484 30.557 49.5913 30.3981Z" fill="white" fill-opacity="0.7"/>
<path d="M45.4265 36.1922C45.2725 35.9076 44.9713 35.7143 44.625 35.7143C44.122 35.7143 43.7143 36.122 43.7143 36.625C43.7143 36.9713 43.9076 37.2725 44.1922 37.4265C44.6166 37.0283 45.0283 36.6166 45.4265 36.1922Z" fill="white" fill-opacity="0.7"/>
<path d="M39.1391 41.1788C38.8288 41.1861 38.557 41.3484 38.3981 41.5913C38.6474 41.4576 38.8944 41.32 39.1391 41.1788Z" fill="white" fill-opacity="0.7"/>
<path d="M12.6019 41.5913C12.443 41.3484 12.1712 41.1861 11.8609 41.1788C12.1056 41.32 12.3526 41.4576 12.6019 41.5913Z" fill="white" fill-opacity="0.7"/>
<path d="M6.80778 37.4265C7.09239 37.2725 7.28571 36.9713 7.28571 36.625C7.28571 36.122 6.87797 35.7143 6.375 35.7143C6.02867 35.7143 5.72749 35.9076 5.57349 36.1922C5.97174 36.6166 6.38339 37.0283 6.80778 37.4265Z" fill="white" fill-opacity="0.7"/>
<path d="M1.82117 31.1391C1.81393 30.8288 1.65158 30.557 1.40866 30.3981C1.54243 30.6474 1.67996 30.8944 1.82117 31.1391Z" fill="white" fill-opacity="0.7"/>
<path d="M18.2143 -7.08929C18.2143 -6.58631 17.8065 -6.17857 17.3036 -6.17857C16.8006 -6.17857 16.3929 -6.58631 16.3929 -7.08929C16.3929 -7.59226 16.8006 -8 17.3036 -8C17.8065 -8 18.2143 -7.59226 18.2143 -7.08929Z" fill="white" fill-opacity="0.7"/>
<path d="M23.6786 -7.08929C23.6786 -6.58631 23.2708 -6.17857 22.7679 -6.17857C22.2649 -6.17857 21.8571 -6.58631 21.8571 -7.08929C21.8571 -7.59226 22.2649 -8 22.7679 -8C23.2708 -8 23.6786 -7.59226 23.6786 -7.08929Z" fill="white" fill-opacity="0.7"/>
<path d="M29.1429 -7.08929C29.1429 -6.58631 28.7351 -6.17857 28.2321 -6.17857C27.7292 -6.17857 27.3214 -6.58631 27.3214 -7.08929C27.3214 -7.59226 27.7292 -8 28.2321 -8C28.7351 -8 29.1429 -7.59226 29.1429 -7.08929Z" fill="white" fill-opacity="0.7"/>
<path d="M34.6071 -7.08929C34.6071 -6.58631 34.1994 -6.17857 33.6964 -6.17857C33.1935 -6.17857 32.7857 -6.58631 32.7857 -7.08929C32.7857 -7.59226 33.1935 -8 33.6964 -8C34.1994 -8 34.6071 -7.59226 34.6071 -7.08929Z" fill="white" fill-opacity="0.7"/>
<path d="M12.75 -1.625C12.75 -1.12203 12.3423 -0.714286 11.8393 -0.714286C11.3363 -0.714286 10.9286 -1.12203 10.9286 -1.625C10.9286 -2.12797 11.3363 -2.53571 11.8393 -2.53571C12.3423 -2.53571 12.75 -2.12797 12.75 -1.625Z" fill="white" fill-opacity="0.7"/>
<path d="M18.2143 -1.625C18.2143 -1.12203 17.8065 -0.714286 17.3036 -0.714286C16.8006 -0.714286 16.3929 -1.12203 16.3929 -1.625C16.3929 -2.12797 16.8006 -2.53571 17.3036 -2.53571C17.8065 -2.53571 18.2143 -2.12797 18.2143 -1.625Z" fill="white" fill-opacity="0.7"/>
<path d="M23.6786 -1.625C23.6786 -1.12203 23.2708 -0.714286 22.7679 -0.714286C22.2649 -0.714286 21.8571 -1.12203 21.8571 -1.625C21.8571 -2.12797 22.2649 -2.53571 22.7679 -2.53571C23.2708 -2.53571 23.6786 -2.12797 23.6786 -1.625Z" fill="white" fill-opacity="0.7"/>
<path d="M29.1429 -1.625C29.1429 -1.12203 28.7351 -0.714286 28.2321 -0.714286C27.7292 -0.714286 27.3214 -1.12203 27.3214 -1.625C27.3214 -2.12797 27.7292 -2.53571 28.2321 -2.53571C28.7351 -2.53571 29.1429 -2.12797 29.1429 -1.625Z" fill="white" fill-opacity="0.7"/>
<path d="M34.6071 -1.625C34.6071 -1.12203 34.1994 -0.714286 33.6964 -0.714286C33.1935 -0.714286 32.7857 -1.12203 32.7857 -1.625C32.7857 -2.12797 33.1935 -2.53571 33.6964 -2.53571C34.1994 -2.53571 34.6071 -2.12797 34.6071 -1.625Z" fill="white" fill-opacity="0.7"/>
<path d="M40.0714 -1.625C40.0714 -1.12203 39.6637 -0.714286 39.1607 -0.714286C38.6577 -0.714286 38.25 -1.12203 38.25 -1.625C38.25 -2.12797 38.6577 -2.53571 39.1607 -2.53571C39.6637 -2.53571 40.0714 -2.12797 40.0714 -1.625Z" fill="white" fill-opacity="0.7"/>
<path d="M7.28571 3.83929C7.28571 4.34226 6.87797 4.75 6.375 4.75C5.87203 4.75 5.46429 4.34226 5.46429 3.83929C5.46429 3.33631 5.87203 2.92857 6.375 2.92857C6.87797 2.92857 7.28571 3.33631 7.28571 3.83929Z" fill="white" fill-opacity="0.7"/>
<path d="M12.75 3.83929C12.75 4.34226 12.3423 4.75 11.8393 4.75C11.3363 4.75 10.9286 4.34226 10.9286 3.83929C10.9286 3.33631 11.3363 2.92857 11.8393 2.92857C12.3423 2.92857 12.75 3.33631 12.75 3.83929Z" fill="white" fill-opacity="0.7"/>
<path d="M18.2143 3.83929C18.2143 4.34226 17.8065 4.75 17.3036 4.75C16.8006 4.75 16.3929 4.34226 16.3929 3.83929C16.3929 3.33631 16.8006 2.92857 17.3036 2.92857C17.8065 2.92857 18.2143 3.33631 18.2143 3.83929Z" fill="white" fill-opacity="0.7"/>
<path d="M23.6786 3.83929C23.6786 4.34226 23.2708 4.75 22.7679 4.75C22.2649 4.75 21.8571 4.34226 21.8571 3.83929C21.8571 3.33631 22.2649 2.92857 22.7679 2.92857C23.2708 2.92857 23.6786 3.33631 23.6786 3.83929Z" fill="white" fill-opacity="0.7"/>
<path d="M29.1429 3.83929C29.1429 4.34226 28.7351 4.75 28.2321 4.75C27.7292 4.75 27.3214 4.34226 27.3214 3.83929C27.3214 3.33631 27.7292 2.92857 28.2321 2.92857C28.7351 2.92857 29.1429 3.33631 29.1429 3.83929Z" fill="white" fill-opacity="0.7"/>
<path d="M34.6071 3.83929C34.6071 4.34226 34.1994 4.75 33.6964 4.75C33.1935 4.75 32.7857 4.34226 32.7857 3.83929C32.7857 3.33631 33.1935 2.92857 33.6964 2.92857C34.1994 2.92857 34.6071 3.33631 34.6071 3.83929Z" fill="white" fill-opacity="0.7"/>
<path d="M40.0714 3.83929C40.0714 4.34226 39.6637 4.75 39.1607 4.75C38.6577 4.75 38.25 4.34226 38.25 3.83929C38.25 3.33631 38.6577 2.92857 39.1607 2.92857C39.6637 2.92857 40.0714 3.33631 40.0714 3.83929Z" fill="white" fill-opacity="0.7"/>
<path d="M45.5357 3.83929C45.5357 4.34226 45.128 4.75 44.625 4.75C44.122 4.75 43.7143 4.34226 43.7143 3.83929C43.7143 3.33631 44.122 2.92857 44.625 2.92857C45.128 2.92857 45.5357 3.33631 45.5357 3.83929Z" fill="white" fill-opacity="0.7"/>
<path d="M1.82143 9.30357C1.82143 9.80654 1.41369 10.2143 0.910714 10.2143C0.407741 10.2143 0 9.80654 0 9.30357C0 8.8006 0.407741 8.39286 0.910714 8.39286C1.41369 8.39286 1.82143 8.8006 1.82143 9.30357Z" fill="white" fill-opacity="0.7"/>
<path d="M7.28571 9.30357C7.28571 9.80654 6.87797 10.2143 6.375 10.2143C5.87203 10.2143 5.46429 9.80654 5.46429 9.30357C5.46429 8.8006 5.87203 8.39286 6.375 8.39286C6.87797 8.39286 7.28571 8.8006 7.28571 9.30357Z" fill="white" fill-opacity="0.7"/>
<path d="M12.75 9.30357C12.75 9.80654 12.3423 10.2143 11.8393 10.2143C11.3363 10.2143 10.9286 9.80654 10.9286 9.30357C10.9286 8.8006 11.3363 8.39286 11.8393 8.39286C12.3423 8.39286 12.75 8.8006 12.75 9.30357Z" fill="white" fill-opacity="0.7"/>
<path d="M18.2143 9.30357C18.2143 9.80654 17.8065 10.2143 17.3036 10.2143C16.8006 10.2143 16.3929 9.80654 16.3929 9.30357C16.3929 8.8006 16.8006 8.39286 17.3036 8.39286C17.8065 8.39286 18.2143 8.8006 18.2143 9.30357Z" fill="white" fill-opacity="0.7"/>
<path d="M23.6786 9.30357C23.6786 9.80654 23.2708 10.2143 22.7679 10.2143C22.2649 10.2143 21.8571 9.80654 21.8571 9.30357C21.8571 8.8006 22.2649 8.39286 22.7679 8.39286C23.2708 8.39286 23.6786 8.8006 23.6786 9.30357Z" fill="white" fill-opacity="0.7"/>
<path d="M29.1429 9.30357C29.1429 9.80654 28.7351 10.2143 28.2321 10.2143C27.7292 10.2143 27.3214 9.80654 27.3214 9.30357C27.3214 8.8006 27.7292 8.39286 28.2321 8.39286C28.7351 8.39286 29.1429 8.8006 29.1429 9.30357Z" fill="white" fill-opacity="0.7"/>
<path d="M34.6071 9.30357C34.6071 9.80654 34.1994 10.2143 33.6964 10.2143C33.1935 10.2143 32.7857 9.80654 32.7857 9.30357C32.7857 8.8006 33.1935 8.39286 33.6964 8.39286C34.1994 8.39286 34.6071 8.8006 34.6071 9.30357Z" fill="white" fill-opacity="0.7"/>
<path d="M40.0714 9.30357C40.0714 9.80654 39.6637 10.2143 39.1607 10.2143C38.6577 10.2143 38.25 9.80654 38.25 9.30357C38.25 8.8006 38.6577 8.39286 39.1607 8.39286C39.6637 8.39286 40.0714 8.8006 40.0714 9.30357Z" fill="white" fill-opacity="0.7"/>
<path d="M45.5357 9.30357C45.5357 9.80654 45.128 10.2143 44.625 10.2143C44.122 10.2143 43.7143 9.80654 43.7143 9.30357C43.7143 8.8006 44.122 8.39286 44.625 8.39286C45.128 8.39286 45.5357 8.8006 45.5357 9.30357Z" fill="white" fill-opacity="0.7"/>
<path d="M51 9.30357C51 9.80654 50.5923 10.2143 50.0893 10.2143C49.5863 10.2143 49.1786 9.80654 49.1786 9.30357C49.1786 8.8006 49.5863 8.39286 50.0893 8.39286C50.5923 8.39286 51 8.8006 51 9.30357Z" fill="white" fill-opacity="0.7"/>
<path d="M1.82143 14.7679C1.82143 15.2708 1.41369 15.6786 0.910714 15.6786C0.407741 15.6786 0 15.2708 0 14.7679C0 14.2649 0.407741 13.8571 0.910714 13.8571C1.41369 13.8571 1.82143 14.2649 1.82143 14.7679Z" fill="white" fill-opacity="0.7"/>
<path d="M7.28571 14.7679C7.28571 15.2708 6.87797 15.6786 6.375 15.6786C5.87203 15.6786 5.46429 15.2708 5.46429 14.7679C5.46429 14.2649 5.87203 13.8571 6.375 13.8571C6.87797 13.8571 7.28571 14.2649 7.28571 14.7679Z" fill="white" fill-opacity="0.7"/>
<path d="M12.75 14.7679C12.75 15.2708 12.3423 15.6786 11.8393 15.6786C11.3363 15.6786 10.9286 15.2708 10.9286 14.7679C10.9286 14.2649 11.3363 13.8571 11.8393 13.8571C12.3423 13.8571 12.75 14.2649 12.75 14.7679Z" fill="white" fill-opacity="0.7"/>
<path d="M18.2143 14.7679C18.2143 15.2708 17.8065 15.6786 17.3036 15.6786C16.8006 15.6786 16.3929 15.2708 16.3929 14.7679C16.3929 14.2649 16.8006 13.8571 17.3036 13.8571C17.8065 13.8571 18.2143 14.2649 18.2143 14.7679Z" fill="white" fill-opacity="0.7"/>
<path d="M23.6786 14.7679C23.6786 15.2708 23.2708 15.6786 22.7679 15.6786C22.2649 15.6786 21.8571 15.2708 21.8571 14.7679C21.8571 14.2649 22.2649 13.8571 22.7679 13.8571C23.2708 13.8571 23.6786 14.2649 23.6786 14.7679Z" fill="white" fill-opacity="0.7"/>
<path d="M29.1429 14.7679C29.1429 15.2708 28.7351 15.6786 28.2321 15.6786C27.7292 15.6786 27.3214 15.2708 27.3214 14.7679C27.3214 14.2649 27.7292 13.8571 28.2321 13.8571C28.7351 13.8571 29.1429 14.2649 29.1429 14.7679Z" fill="white" fill-opacity="0.7"/>
<path d="M34.6071 14.7679C34.6071 15.2708 34.1994 15.6786 33.6964 15.6786C33.1935 15.6786 32.7857 15.2708 32.7857 14.7679C32.7857 14.2649 33.1935 13.8571 33.6964 13.8571C34.1994 13.8571 34.6071 14.2649 34.6071 14.7679Z" fill="white" fill-opacity="0.7"/>
<path d="M40.0714 14.7679C40.0714 15.2708 39.6637 15.6786 39.1607 15.6786C38.6577 15.6786 38.25 15.2708 38.25 14.7679C38.25 14.2649 38.6577 13.8571 39.1607 13.8571C39.6637 13.8571 40.0714 14.2649 40.0714 14.7679Z" fill="white" fill-opacity="0.7"/>
<path d="M45.5357 14.7679C45.5357 15.2708 45.128 15.6786 44.625 15.6786C44.122 15.6786 43.7143 15.2708 43.7143 14.7679C43.7143 14.2649 44.122 13.8571 44.625 13.8571C45.128 13.8571 45.5357 14.2649 45.5357 14.7679Z" fill="white" fill-opacity="0.7"/>
<path d="M51 14.7679C51 15.2708 50.5923 15.6786 50.0893 15.6786C49.5863 15.6786 49.1786 15.2708 49.1786 14.7679C49.1786 14.2649 49.5863 13.8571 50.0893 13.8571C50.5923 13.8571 51 14.2649 51 14.7679Z" fill="white" fill-opacity="0.7"/>
<path d="M1.82143 20.2321C1.82143 20.7351 1.41369 21.1429 0.910714 21.1429C0.407741 21.1429 0 20.7351 0 20.2321C0 19.7292 0.407741 19.3214 0.910714 19.3214C1.41369 19.3214 1.82143 19.7292 1.82143 20.2321Z" fill="white" fill-opacity="0.7"/>
<path d="M7.28571 20.2321C7.28571 20.7351 6.87797 21.1429 6.375 21.1429C5.87203 21.1429 5.46429 20.7351 5.46429 20.2321C5.46429 19.7292 5.87203 19.3214 6.375 19.3214C6.87797 19.3214 7.28571 19.7292 7.28571 20.2321Z" fill="white" fill-opacity="0.7"/>
<path d="M12.75 20.2321C12.75 20.7351 12.3423 21.1429 11.8393 21.1429C11.3363 21.1429 10.9286 20.7351 10.9286 20.2321C10.9286 19.7292 11.3363 19.3214 11.8393 19.3214C12.3423 19.3214 12.75 19.7292 12.75 20.2321Z" fill="white" fill-opacity="0.7"/>
<path d="M18.2143 20.2321C18.2143 20.7351 17.8065 21.1429 17.3036 21.1429C16.8006 21.1429 16.3929 20.7351 16.3929 20.2321C16.3929 19.7292 16.8006 19.3214 17.3036 19.3214C17.8065 19.3214 18.2143 19.7292 18.2143 20.2321Z" fill="white" fill-opacity="0.7"/>
<path d="M23.6786 20.2321C23.6786 20.7351 23.2708 21.1429 22.7679 21.1429C22.2649 21.1429 21.8571 20.7351 21.8571 20.2321C21.8571 19.7292 22.2649 19.3214 22.7679 19.3214C23.2708 19.3214 23.6786 19.7292 23.6786 20.2321Z" fill="white" fill-opacity="0.7"/>
<path d="M29.1429 20.2321C29.1429 20.7351 28.7351 21.1429 28.2321 21.1429C27.7292 21.1429 27.3214 20.7351 27.3214 20.2321C27.3214 19.7292 27.7292 19.3214 28.2321 19.3214C28.7351 19.3214 29.1429 19.7292 29.1429 20.2321Z" fill="white" fill-opacity="0.7"/>
<path d="M34.6071 20.2321C34.6071 20.7351 34.1994 21.1429 33.6964 21.1429C33.1935 21.1429 32.7857 20.7351 32.7857 20.2321C32.7857 19.7292 33.1935 19.3214 33.6964 19.3214C34.1994 19.3214 34.6071 19.7292 34.6071 20.2321Z" fill="white" fill-opacity="0.7"/>
<path d="M40.0714 20.2321C40.0714 20.7351 39.6637 21.1429 39.1607 21.1429C38.6577 21.1429 38.25 20.7351 38.25 20.2321C38.25 19.7292 38.6577 19.3214 39.1607 19.3214C39.6637 19.3214 40.0714 19.7292 40.0714 20.2321Z" fill="white" fill-opacity="0.7"/>
<path d="M45.5357 20.2321C45.5357 20.7351 45.128 21.1429 44.625 21.1429C44.122 21.1429 43.7143 20.7351 43.7143 20.2321C43.7143 19.7292 44.122 19.3214 44.625 19.3214C45.128 19.3214 45.5357 19.7292 45.5357 20.2321Z" fill="white" fill-opacity="0.7"/>
<path d="M51 20.2321C51 20.7351 50.5923 21.1429 50.0893 21.1429C49.5863 21.1429 49.1786 20.7351 49.1786 20.2321C49.1786 19.7292 49.5863 19.3214 50.0893 19.3214C50.5923 19.3214 51 19.7292 51 20.2321Z" fill="white" fill-opacity="0.7"/>
<path d="M1.82143 25.6964C1.82143 26.1994 1.41369 26.6071 0.910714 26.6071C0.407741 26.6071 0 26.1994 0 25.6964C0 25.1935 0.407741 24.7857 0.910714 24.7857C1.41369 24.7857 1.82143 25.1935 1.82143 25.6964Z" fill="white" fill-opacity="0.7"/>
<path d="M7.28571 25.6964C7.28571 26.1994 6.87797 26.6071 6.375 26.6071C5.87203 26.6071 5.46429 26.1994 5.46429 25.6964C5.46429 25.1935 5.87203 24.7857 6.375 24.7857C6.87797 24.7857 7.28571 25.1935 7.28571 25.6964Z" fill="white" fill-opacity="0.7"/>
<path d="M12.75 25.6964C12.75 26.1994 12.3423 26.6071 11.8393 26.6071C11.3363 26.6071 10.9286 26.1994 10.9286 25.6964C10.9286 25.1935 11.3363 24.7857 11.8393 24.7857C12.3423 24.7857 12.75 25.1935 12.75 25.6964Z" fill="white" fill-opacity="0.7"/>
<path d="M18.2143 25.6964C18.2143 26.1994 17.8065 26.6071 17.3036 26.6071C16.8006 26.6071 16.3929 26.1994 16.3929 25.6964C16.3929 25.1935 16.8006 24.7857 17.3036 24.7857C17.8065 24.7857 18.2143 25.1935 18.2143 25.6964Z" fill="white" fill-opacity="0.7"/>
<path d="M23.6786 25.6964C23.6786 26.1994 23.2708 26.6071 22.7679 26.6071C22.2649 26.6071 21.8571 26.1994 21.8571 25.6964C21.8571 25.1935 22.2649 24.7857 22.7679 24.7857C23.2708 24.7857 23.6786 25.1935 23.6786 25.6964Z" fill="white" fill-opacity="0.7"/>
<path d="M29.1429 25.6964C29.1429 26.1994 28.7351 26.6071 28.2321 26.6071C27.7292 26.6071 27.3214 26.1994 27.3214 25.6964C27.3214 25.1935 27.7292 24.7857 28.2321 24.7857C28.7351 24.7857 29.1429 25.1935 29.1429 25.6964Z" fill="white" fill-opacity="0.7"/>
<path d="M34.6071 25.6964C34.6071 26.1994 34.1994 26.6071 33.6964 26.6071C33.1935 26.6071 32.7857 26.1994 32.7857 25.6964C32.7857 25.1935 33.1935 24.7857 33.6964 24.7857C34.1994 24.7857 34.6071 25.1935 34.6071 25.6964Z" fill="white" fill-opacity="0.7"/>
<path d="M40.0714 25.6964C40.0714 26.1994 39.6637 26.6071 39.1607 26.6071C38.6577 26.6071 38.25 26.1994 38.25 25.6964C38.25 25.1935 38.6577 24.7857 39.1607 24.7857C39.6637 24.7857 40.0714 25.1935 40.0714 25.6964Z" fill="white" fill-opacity="0.7"/>
<path d="M45.5357 25.6964C45.5357 26.1994 45.128 26.6071 44.625 26.6071C44.122 26.6071 43.7143 26.1994 43.7143 25.6964C43.7143 25.1935 44.122 24.7857 44.625 24.7857C45.128 24.7857 45.5357 25.1935 45.5357 25.6964Z" fill="white" fill-opacity="0.7"/>
<path d="M51 25.6964C51 26.1994 50.5923 26.6071 50.0893 26.6071C49.5863 26.6071 49.1786 26.1994 49.1786 25.6964C49.1786 25.1935 49.5863 24.7857 50.0893 24.7857C50.5923 24.7857 51 25.1935 51 25.6964Z" fill="white" fill-opacity="0.7"/>
<path d="M7.28571 31.1607C7.28571 31.6637 6.87797 32.0714 6.375 32.0714C5.87203 32.0714 5.46429 31.6637 5.46429 31.1607C5.46429 30.6577 5.87203 30.25 6.375 30.25C6.87797 30.25 7.28571 30.6577 7.28571 31.1607Z" fill="white" fill-opacity="0.7"/>
<path d="M12.75 31.1607C12.75 31.6637 12.3423 32.0714 11.8393 32.0714C11.3363 32.0714 10.9286 31.6637 10.9286 31.1607C10.9286 30.6577 11.3363 30.25 11.8393 30.25C12.3423 30.25 12.75 30.6577 12.75 31.1607Z" fill="white" fill-opacity="0.7"/>
<path d="M18.2143 31.1607C18.2143 31.6637 17.8065 32.0714 17.3036 32.0714C16.8006 32.0714 16.3929 31.6637 16.3929 31.1607C16.3929 30.6577 16.8006 30.25 17.3036 30.25C17.8065 30.25 18.2143 30.6577 18.2143 31.1607Z" fill="white" fill-opacity="0.7"/>
<path d="M23.6786 31.1607C23.6786 31.6637 23.2708 32.0714 22.7679 32.0714C22.2649 32.0714 21.8571 31.6637 21.8571 31.1607C21.8571 30.6577 22.2649 30.25 22.7679 30.25C23.2708 30.25 23.6786 30.6577 23.6786 31.1607Z" fill="white" fill-opacity="0.7"/>
<path d="M29.1429 31.1607C29.1429 31.6637 28.7351 32.0714 28.2321 32.0714C27.7292 32.0714 27.3214 31.6637 27.3214 31.1607C27.3214 30.6577 27.7292 30.25 28.2321 30.25C28.7351 30.25 29.1429 30.6577 29.1429 31.1607Z" fill="white" fill-opacity="0.7"/>
<path d="M34.6071 31.1607C34.6071 31.6637 34.1994 32.0714 33.6964 32.0714C33.1935 32.0714 32.7857 31.6637 32.7857 31.1607C32.7857 30.6577 33.1935 30.25 33.6964 30.25C34.1994 30.25 34.6071 30.6577 34.6071 31.1607Z" fill="white" fill-opacity="0.7"/>
<path d="M40.0714 31.1607C40.0714 31.6637 39.6637 32.0714 39.1607 32.0714C38.6577 32.0714 38.25 31.6637 38.25 31.1607C38.25 30.6577 38.6577 30.25 39.1607 30.25C39.6637 30.25 40.0714 30.6577 40.0714 31.1607Z" fill="white" fill-opacity="0.7"/>
<path d="M45.5357 31.1607C45.5357 31.6637 45.128 32.0714 44.625 32.0714C44.122 32.0714 43.7143 31.6637 43.7143 31.1607C43.7143 30.6577 44.122 30.25 44.625 30.25C45.128 30.25 45.5357 30.6577 45.5357 31.1607Z" fill="white" fill-opacity="0.7"/>
<path d="M12.75 36.625C12.75 37.128 12.3423 37.5357 11.8393 37.5357C11.3363 37.5357 10.9286 37.128 10.9286 36.625C10.9286 36.122 11.3363 35.7143 11.8393 35.7143C12.3423 35.7143 12.75 36.122 12.75 36.625Z" fill="white" fill-opacity="0.7"/>
<path d="M18.2143 36.625C18.2143 37.128 17.8065 37.5357 17.3036 37.5357C16.8006 37.5357 16.3929 37.128 16.3929 36.625C16.3929 36.122 16.8006 35.7143 17.3036 35.7143C17.8065 35.7143 18.2143 36.122 18.2143 36.625Z" fill="white" fill-opacity="0.7"/>
<path d="M23.6786 36.625C23.6786 37.128 23.2708 37.5357 22.7679 37.5357C22.2649 37.5357 21.8571 37.128 21.8571 36.625C21.8571 36.122 22.2649 35.7143 22.7679 35.7143C23.2708 35.7143 23.6786 36.122 23.6786 36.625Z" fill="white" fill-opacity="0.7"/>
<path d="M29.1429 36.625C29.1429 37.128 28.7351 37.5357 28.2321 37.5357C27.7292 37.5357 27.3214 37.128 27.3214 36.625C27.3214 36.122 27.7292 35.7143 28.2321 35.7143C28.7351 35.7143 29.1429 36.122 29.1429 36.625Z" fill="white" fill-opacity="0.7"/>
<path d="M34.6071 36.625C34.6071 37.128 34.1994 37.5357 33.6964 37.5357C33.1935 37.5357 32.7857 37.128 32.7857 36.625C32.7857 36.122 33.1935 35.7143 33.6964 35.7143C34.1994 35.7143 34.6071 36.122 34.6071 36.625Z" fill="white" fill-opacity="0.7"/>
<path d="M40.0714 36.625C40.0714 37.128 39.6637 37.5357 39.1607 37.5357C38.6577 37.5357 38.25 37.128 38.25 36.625C38.25 36.122 38.6577 35.7143 39.1607 35.7143C39.6637 35.7143 40.0714 36.122 40.0714 36.625Z" fill="white" fill-opacity="0.7"/>
<path d="M18.2143 42.0893C18.2143 42.5923 17.8065 43 17.3036 43C16.8006 43 16.3929 42.5923 16.3929 42.0893C16.3929 41.5863 16.8006 41.1786 17.3036 41.1786C17.8065 41.1786 18.2143 41.5863 18.2143 42.0893Z" fill="white" fill-opacity="0.7"/>
<path d="M23.6786 42.0893C23.6786 42.5923 23.2708 43 22.7679 43C22.2649 43 21.8571 42.5923 21.8571 42.0893C21.8571 41.5863 22.2649 41.1786 22.7679 41.1786C23.2708 41.1786 23.6786 41.5863 23.6786 42.0893Z" fill="white" fill-opacity="0.7"/>
<path d="M29.1429 42.0893C29.1429 42.5923 28.7351 43 28.2321 43C27.7292 43 27.3214 42.5923 27.3214 42.0893C27.3214 41.5863 27.7292 41.1786 28.2321 41.1786C28.7351 41.1786 29.1429 41.5863 29.1429 42.0893Z" fill="white" fill-opacity="0.7"/>
<path d="M34.6071 42.0893C34.6071 42.5923 34.1994 43 33.6964 43C33.1935 43 32.7857 42.5923 32.7857 42.0893C32.7857 41.5863 33.1935 41.1786 33.6964 41.1786C34.1994 41.1786 34.6071 41.5863 34.6071 42.0893Z" fill="white" fill-opacity="0.7"/>
</svg>
